<?xml version="1.0" encoding="UTF-8" standalone="no"?>
<!-- Created with Inkscape (http://www.inkscape.org/) -->

<svg
   xmlns:dc="http://purl.org/dc/elements/1.1/"
   xmlns:cc="http://creativecommons.org/ns#"
   xmlns:rdf="http://www.w3.org/1999/02/22-rdf-syntax-ns#"
   xmlns:svg="http://www.w3.org/2000/svg"
   xmlns="http://www.w3.org/2000/svg"
   xmlns:sodipodi="http://sodipodi.sourceforge.net/DTD/sodipodi-0.dtd"
   xmlns:inkscape="http://www.inkscape.org/namespaces/inkscape"
   id="svg3390"
   version="1.1"
   inkscape:version="0.91 r13725"
   width="1026.5823"
   height="762.02533"
   viewBox="0 0 1026.5823 762.02533"
   sodipodi:docname="sleipnir-logo.svg">
  <metadata
     id="metadata3396">
    <rdf:RDF>
      <cc:Work
         rdf:about="">
        <dc:format>image/svg+xml</dc:format>
        <dc:type
           rdf:resource="http://purl.org/dc/dcmitype/StillImage" />
        <dc:title></dc:title>
      </cc:Work>
    </rdf:RDF>
  </metadata>
  <defs
     id="defs3394">
    <filter
       style="color-interpolation-filters:sRGB;"
       inkscape:label="Invert"
       id="filter3404">
      <feColorMatrix
         values="1 0 0 0 0 0 1 0 0 0 0 0 1 0 0 -0.21 -0.72 -0.07 2 0 "
         result="fbSourceGraphic"
         id="feColorMatrix3406" />
      <feColorMatrix
         result="fbSourceGraphicAlpha"
         in="fbSourceGraphic"
         values="0 0 0 -1 0 0 0 0 -1 0 0 0 0 -1 0 0 0 0 1 0"
         id="feColorMatrix3408" />
      <feColorMatrix
         id="feColorMatrix3410"
         values="1 0 0 0 0 0 1 0 0 0 0 0 1 0 0 -0.21 -0.72 -0.07 2 0 "
         result="fbSourceGraphic"
         in="fbSourceGraphic" />
      <feColorMatrix
         result="fbSourceGraphicAlpha"
         in="fbSourceGraphic"
         values="0 0 0 -1 0 0 0 0 -1 0 0 0 0 -1 0 0 0 0 1 0"
         id="feColorMatrix3412" />
      <feColorMatrix
         id="feColorMatrix3414"
         values="1 0 0 0 0 0 1 0 0 0 0 0 1 0 0 -0.21 -0.72 -0.07 2 0 "
         result="fbSourceGraphic"
         in="fbSourceGraphic" />
      <feColorMatrix
         result="fbSourceGraphicAlpha"
         in="fbSourceGraphic"
         values="0 0 0 -1 0 0 0 0 -1 0 0 0 0 -1 0 0 0 0 1 0"
         id="feColorMatrix3416" />
      <feColorMatrix
         id="feColorMatrix3418"
         values="0 0 1 0 0 0 1 0 0 0 1 0 0 0 0 -0.21 -0.72 -0.07 2 0 "
         result="fbSourceGraphic"
         in="fbSourceGraphic" />
      <feColorMatrix
         result="fbSourceGraphicAlpha"
         in="fbSourceGraphic"
         values="0 0 0 -1 0 0 0 0 -1 0 0 0 0 -1 0 0 0 0 1 0"
         id="feColorMatrix3420" />
      <feColorMatrix
         id="feColorMatrix3422"
         values="0 0 1 0 0 0 1 0 0 0 1 0 0 0 0 -0.21 -0.72 -0.07 2 0 "
         result="fbSourceGraphic"
         in="fbSourceGraphic" />
      <feColorMatrix
         result="fbSourceGraphicAlpha"
         in="fbSourceGraphic"
         values="0 0 0 -1 0 0 0 0 -1 0 0 0 0 -1 0 0 0 0 1 0"
         id="feColorMatrix3424" />
      <feColorMatrix
         id="feColorMatrix3426"
         values="0 0 1 0 0 0 1 0 0 0 1 0 0 0 0 -0.21 -0.72 -0.07 2 0 "
         result="color2"
         in="fbSourceGraphic" />
    </filter>
  </defs>
  <sodipodi:namedview
     pagecolor="#ffffff"
     bordercolor="#666666"
     borderopacity="1"
     objecttolerance="10"
     gridtolerance="10"
     guidetolerance="10"
     inkscape:pageopacity="0"
     inkscape:pageshadow="2"
     inkscape:window-width="2560"
     inkscape:window-height="1376"
     id="namedview3392"
     showgrid="false"
     inkscape:zoom="1.0986701"
     inkscape:cx="339.72362"
     inkscape:cy="320.63556"
     inkscape:window-x="0"
     inkscape:window-y="27"
     inkscape:window-maximized="1"
     inkscape:current-layer="layer1" />
  <g
     inkscape:groupmode="layer"
     id="layer1"
     inkscape:label="Layer 1"
     style="display:inline">
    <path
       style="fill:#000000;fill-rule:evenodd;stroke:#000000;stroke-width:1.04507589px;stroke-linecap:butt;stroke-linejoin:miter;stroke-opacity:1"
       mask="none"
       d="m 226.21322,35.666188 c -15.28273,5.639959 -51.4983,42.887518 -74.08673,53.581589 -22.14319,14.783693 -41.51928,31.088753 -60.153436,47.590593 -17.801529,13.18536 -31.795139,30.0989 -44.180178,48.58841 5.16716,16.39959 11.683109,30.00835 34.663055,35.9419 L 104.2067,196.7422 c 8.16376,-5.99039 8.41107,-9.98488 21.7508,-15.97529 27.66185,-10.46853 52.75316,-15.90323 76.80531,-19.30205 l 0,15.30872 -21.0701,31.28403 -64.57166,52.58175 c -8.68349,12.52288 -16.67813,27.0476 -12.91435,41.26834 0.16759,14.29114 0.34858,28.07788 4.0779,40.60179 7.1477,24.06197 26.70662,35.97129 42.14226,51.9172 -26.73478,53.91383 -104.299,151.65975 -81.563873,156.41613 87.280863,69.52059 97.868533,82.25467 158.486773,111.90182 51.15488,33.84386 109.81674,52.60286 171.84663,59.82304 59.96738,-7.27533 112.96694,-36.72577 165.84637,-66.55937 55.5563,-31.13243 129.88125,-89.98377 128.46263,-99.84106 -8.68729,-55.01144 -38.10725,-106.89974 -70.00885,-158.4138 l 10.87437,-14.64219 c 12.36631,-14.07048 24.10732,-28.75357 34.66511,-44.59509 1.13283,-18.66588 2.26644,-35.95836 3.39927,-57.90819 9.96891,-12.74701 19.93765,-10.78598 29.90656,-6.65553 14.07075,1.89194 30.3628,0.88177 39.42161,9.31774 l 33.98443,11.97996 c 13.35128,4.02444 21.15668,1.84839 29.22793,2.66424 l 78.16461,7.32008 c 27.18792,2.26768 54.37592,14.53541 81.56389,25.29303 l -40.10229,-22.63082 c 17.65836,2.92477 36.50187,2.37078 57.77519,-5.32443 l -61.1724,-9.98432 31.94447,-1.99564 36.70508,-17.30639 c 0,0 -33.22255,9.26053 -36.02441,9.31773 -29.63919,0.60544 -63.02551,-7.92683 -61.1724,-10.64885 l -42.82087,-27.2887 -48.93875,-1.99767 c -14.8914,-3.77174 -35.81708,-7.54366 -44.18018,-11.31542 l -61.17239,5.99099 c -21.41809,0.14779 -42.99952,-0.10186 -67.97094,-8.6532 -21.52377,-3.66817 -43.0479,-1.44117 -64.57167,0 -29.91313,-1.73719 -62.20847,10.52775 -93.79753,18.63752 -29.45357,8.84382 -58.90679,7.62314 -88.36034,7.98662 -20.84407,-2.30017 -41.68969,-0.24723 -62.53375,-7.32208 -5.90686,-16.16476 -15.75238,-24.61437 -25.148,-33.94624 l 71.36814,35.94391 c -22.63577,-26.88679 -43.55623,-45.81814 -68.64955,-64.56373 l 56.41589,25.9576 c -14.89919,-25.84595 -34.72165,-48.47831 -60.49378,-67.22594 l 50.29803,29.28637 c -11.98194,-25.67072 -28.37423,-46.40449 -53.01662,-57.90617 l 40.1023,8.6532 C 312.38487,110.66512 294.439,97.360999 268.69377,85.585712 l 58.45381,11.315415 C 305.87839,81.675517 271.66234,56.816039 230.29112,52.972594 l -4.0779,-17.306406 z m 192.9745,350.648632 c 0.57188,9.8e-4 1.10067,0.0164 1.58412,0.0444 l 17.78221,0.94129 c 6.52381,1.38114 10.90143,7.29425 11.53443,11.29522 -12.46802,18.27563 -36.02409,31.12126 -54.94523,46.23725 -5.36951,5.71862 -23.18939,-2.17771 -32.04554,-6.70199 -6.00153,-5.96968 -13.72171,-9.6958 -17.30161,-18.82738 0.39058,-4.91721 2.65895,-7.07553 4.80601,-9.41268 7.04908,-4.63807 16.13731,-12.36162 23.18641,-13.62414 18.6042,-6.93643 36.821,-9.97042 45.3992,-9.95199 z m 110.68456,5.69203 c 5.53837,0.52795 11.5527,3.46865 11.05381,4.23572 8.36013,6.9456 12.1308,14.05771 15.55453,22.61467 4.345,19.02103 12.1331,39.39111 13.03603,57.06387 0.24268,16.74065 1.49203,17.22595 0.24754,49.98618 l -3.34153,5.43552 c -12.32358,7.63241 -39.4001,-6.61785 -56.82842,-15.84805 -3.6318,-2.16532 -13.28564,-6.8473 -11.11364,-13.90692 l 2.07298,-14.97951 9.13347,-50.35985 8.17021,-31.53451 c 3.29509,-5.20936 4.5696,-13.18774 12.01502,-12.70712 z m -284.0452,2.35318 c 4.00516,0.19913 8.00987,0.0332 12.01502,1.41191 4.51705,0.68233 6.3661,10.07173 9.1314,16.47217 l 6.96975,30.35692 2.88359,20.94422 c -0.0434,17.72604 7.15805,32.85055 -1.68313,45.65352 -19.06601,7.53186 -83.18972,30.71196 -86.27087,22.59044 l 2.64432,-23.06107 c 6.1591,-20.88295 11.63266,-42.1654 19.70464,-59.30191 l 14.8986,-42.35908 c 2.74541,-5.5462 4.55042,-11.41466 19.70668,-12.70712 z m 334.84859,5.39107 c 9.51708,0.29498 13.42861,4.24937 17.67288,7.98665 7.47669,9.41667 14.95274,20.70306 22.42942,32.61515 22.41847,36.06438 55.58132,105.68129 48.93873,117.14546 6.40753,-2.93176 -75.73433,55.04 -113.5104,82.53466 -48.58856,27.89537 -88.48387,51.61794 -165.84637,69.22359 C 344.60089,699.29397 293.48278,673.58899 244.22439,653.3461 199.40732,626.79992 162.64435,599.26706 127.99747,571.47597 L 107.60598,554.16958 91.973054,538.19629 C 89.598427,527.98756 119.16,496.92849 132.75396,476.29478 l 42.82088,-59.90383 c 1.75402,-2.32047 11.82234,-13.16116 9.51714,-10.64884 10.7506,-5.3887 16.17113,-1.64432 19.7108,5.32442 1.79773,0.30992 -8.27896,26.78206 -12.91433,41.26631 -10.93538,33.72928 -28.07354,85.82888 -17.67289,90.52334 26.39658,25.54209 52.58955,51.13271 93.11891,73.2149 40.55532,21.76281 85.62763,49.42444 121.66619,55.24597 41.00877,-7.9859 78.73172,-39.8255 117.24795,-57.5749 33.46619,-24.92802 53.47333,-39.77324 76.46497,-59.57257 13.02418,-14.76911 10.45911,-25.17475 11.55503,-36.60645 l -19.71081,-97.8434 c -2.62646,-11.22482 1.64956,-15.69144 6.11787,-19.96863 z m -93.25919,3.39746 c 0.52375,0.0189 1.05684,0.0697 1.6027,0.15351 3.44451,-0.0394 5.56774,3.15491 7.209,7.53015 l 1.4418,12.70712 c -3.20457,24.47371 -8.02869,53.76605 -16.3404,70.1285 -14.66083,13.53328 -23.89052,-1.66582 -28.48953,-2.67028 -7.70836,-5.62873 -6.79726,-5.72265 -15.20801,-12.45867 -8.41782,-4.16189 -10.71598,-8.8987 -15.899,-13.11111 -2.88904,-4.54963 -3.91043,-9.09875 -0.4806,-13.64838 l 17.78222,-16.47219 28.35748,-22.59245 c 6.68023,-3.17217 12.16818,-9.8487 20.02434,-9.5662 z m -201.21895,0.15351 23.19051,16.54289 24.08986,17.32458 13.06903,12.05067 c 4.07559,3.82484 10.84357,9.92014 9.8224,12.91315 1.08828,4.16553 -26.59479,15.37374 -39.89191,23.06106 -4.05208,1.6853 -10.44614,6.54413 -14.41801,8.94406 -8.02962,3.18724 -7.00171,-0.52378 -7.20902,-3.29444 l -9.61407,-63.06899 -4.3254,-17.41347 c 0.33052,-3.28796 -0.24788,-7.16891 5.28661,-7.05951 z m 99.96902,68.7146 c 13.72121,5.17717 22.88918,10.35577 32.20228,15.53295 l 23.54944,14.58965 c 3.2929,4.01803 10.38493,7.10541 9.13139,12.23648 l -13.45681,9.88331 -33.16142,24.475 c -6.84486,3.52379 -22.4176,10.71957 -16.5178,7.39278 -16.22598,-3.10254 -20.5763,-8.59926 -28.76384,-12.48896 -13.60846,-7.90026 -22.08502,-12.49516 -32.97785,-22.16828 -18.36267,-10.44793 -14.73048,-9.78057 -12.57813,-13.21209 l 62.96073,-34.35831 c 3.79644,-1.20759 6.69915,-1.54021 9.61201,-1.88253 z m 91.79881,45.18289 c 11.99479,2.09854 16.52401,6.63329 23.54944,10.35394 l 33.05622,15.41781 c 8.45023,3.98104 15.87979,9.51572 14.04468,15.17543 -6.15891,7.70194 -12.39475,12.92109 -19.44473,18.87788 -8.127,7.81107 -27.12419,22.09618 -38.87501,26.19997 -5.25197,2.6746 -9.80669,6.48695 -17.62751,4.96892 -7.65985,2.7194 -24.73985,-13.61088 -34.09377,-18.35675 -10.69545,-5.74625 -15.43494,-11.49146 -21.94054,-17.23771 -14.20347,-11.80609 18.6844,-25.33215 27.03327,-35.86112 10.35454,-7.92492 19.78768,-17.31086 34.29795,-19.53837 z m -190.02077,4.82147 c 3.5658,-0.0672 6.66292,0.67405 9.78939,0.82613 11.21446,-0.44502 22.42761,15.0551 33.64205,22.59246 8.01031,8.15798 27.41102,17.55421 24.03208,24.47296 -4.69021,10.17449 -30.12717,37.63623 -51.42631,44.24162 -18.44733,-4.21047 -23.98924,-12.08011 -34.96214,-18.12041 -12.44807,-5.65104 -57.82172,-32.77797 -61.64267,-46.59479 -7.73784,-8.93108 30.16751,-13.10939 44.65666,-18.31434 l 28.87727,-7.80687 c 2.5847,-0.92553 4.89419,-1.2564 7.03367,-1.29676 z m 89.77123,54.09059 c 3.69676,0.0495 7.6137,0.85519 11.81493,1.80175 15.50623,4.07936 24.40922,10.88389 34.26496,17.33468 8.34211,8.36869 34.43738,20.47252 31.14415,26.76959 -17.5422,13.19201 -43.44199,29.68234 -66.3105,33.31199 -12.80297,-1.30818 -24.05162,-10.48828 -35.90683,-14.56742 -10.89403,-5.17721 -33.32018,-12.9843 -33.36151,-17.19533 3.81344,-7.57674 15.96723,-16.71485 21.43932,-21.85518 32.98194,-29.63096 15.68889,-15.02296 26.42272,-22.86717 3.31924,-2.07631 6.79599,-2.78247 10.49276,-2.73291 z"
       id="path3461"
       inkscape:connector-curvature="0" />
  </g>
</svg>
